# xmcd
#
# Track frame offsets:
#	150
#	13192
#	15025
#	32890
#	49519
#	63544
#	81898
#	95458
#	110947
#	122091
#	136048
#	151973
#	167926
#
# Disc length: 2420 seconds
# Revision: 0
# Processed by: cddbd v1.5.2PL0 Copyright (c) Steve Scherf et al.
# Submitted via: dBpowerAMP V12.0
#
DISCID=a209720d
DTITLE=Gold Heart - Places I've Been
DYEAR=2015
DGENRE=Country
TTITLE0=Ain't That Crazy
TTITLE1=Oh My Darlin' Intro
TTITLE2=O.K. Corral
TTITLE3=Places I've Been
TTITLE4=Steam Engine
TTITLE5=Raleigh
TTITLE6=Truth Is
TTITLE7=I've Got A Burden
TTITLE8=Late December
TTITLE9=Back With Me
TTITLE10=Summertime
TTITLE11=You Make Me Smile
TTITLE12=Master Of The Sea
EXTD=
EXTT0=
EXTT1=
EXTT2=
EXTT3=
EXTT4=
EXTT5=
EXTT6=
EXTT7=
EXTT8=
EXTT9=
EXTT10=
EXTT11=
EXTT12=
PLAYORDER=
